<?xml version="1.0" encoding="UTF-8"?>
<svg width="64" height="64" version="1.1" viewBox="0 0 64 64" xmlns="http://www.w3.org/2000/svg">
  <g transform="translate(0 -988.36)">
    <!-- Tool shape - drill bit -->
    <path d="m32 994.36v12l-8 8v16c0 2.2 1.8 4 4 4h8c2.2 0 4-1.8 4-4v-16l-8-8z" 
          fill="#4a90e2" stroke="#2c5f8d" stroke-width="2"/>
    
    <!-- Sync arrows -->
    <g fill="none" stroke="#e74c3c" stroke-width="3" stroke-linecap="round" stroke-linejoin="round">
      <!-- Left arrow (down) -->
      <path d="m14 1010.4v12"/>
      <path d="m10 1018.4 4 4 4-4"/>
      
      <!-- Right arrow (up) -->
      <path d="m50 1022.4v-12"/>
      <path d="m46 1014.4 4-4 4 4"/>
    </g>
    
    <!-- Server/database symbol -->
    <ellipse cx="32" cy="1046.4" rx="10" ry="3" fill="#95a5a6" stroke="#7f8c8d" stroke-width="1.5"/>
    <path d="m22 1046.4v4c0 1.7 4.5 3 10 3s10-1.3 10-3v-4" 
          fill="#95a5a6" stroke="#7f8c8d" stroke-width="1.5"/>
  </g>
</svg>
