<?xml version="1.0" encoding="UTF-8" standalone="no"?>
<!-- Created with Inkscape (http://www.inkscape.org/) -->

<svg
   width="89.407204mm"
   height="125.42043mm"
   viewBox="0 0 89.407204 125.42043"
   version="1.1"
   id="svg1"
   xml:space="preserve"
   inkscape:version="1.4.2 (ebf0e940d0, 2025-05-08)"
   sodipodi:docname="loobic.svg"
   xmlns:inkscape="http://www.inkscape.org/namespaces/inkscape"
   xmlns:sodipodi="http://sodipodi.sourceforge.net/DTD/sodipodi-0.dtd"
   xmlns="http://www.w3.org/2000/svg"
   xmlns:svg="http://www.w3.org/2000/svg"><sodipodi:namedview
     id="namedview1"
     pagecolor="#ffffff"
     bordercolor="#000000"
     borderopacity="0.25"
     inkscape:showpageshadow="2"
     inkscape:pageopacity="0.0"
     inkscape:pagecheckerboard="0"
     inkscape:deskcolor="#d1d1d1"
     inkscape:document-units="mm"
     inkscape:zoom="0.87214506"
     inkscape:cx="169.12324"
     inkscape:cy="318.75431"
     inkscape:window-width="3806"
     inkscape:window-height="2075"
     inkscape:window-x="0"
     inkscape:window-y="0"
     inkscape:window-maximized="1"
     inkscape:current-layer="layer1" /><defs
     id="defs1" /><g
     inkscape:label="Layer 1"
     inkscape:groupmode="layer"
     id="layer1"
     transform="translate(-60.240793,-63.880713)"><path
       style="fill:#204a3e;fill-opacity:1"
       d="m 101.80476,189.25067 c -7.630603,-0.70057 -14.253536,-3.01564 -20.685578,-7.2307 -11.189089,-7.33246 -18.657298,-18.88076 -20.557097,-31.78799 -0.424902,-2.88679 -0.42893,-8.04476 -0.0087,-11.18333 0.794149,-5.9317 2.751881,-11.63228 6.274333,-18.26977 4.175947,-7.86889 16.209943,-27.242861 27.043356,-43.538081 6.323006,-9.510829 8.080106,-11.990979 8.891466,-12.550304 1.52672,-1.052468 3.37659,-1.080397 5.01656,-0.07574 1.0236,0.62707 9.89399,14.177824 20.68404,31.597757 8.80177,14.209978 13.27976,21.863848 15.88999,27.159508 5.84181,11.85197 6.84195,23.28425 3.03878,34.73561 -1.04914,3.15896 -3.23365,7.69434 -5.05598,10.49695 -7.03187,10.81456 -18.66887,18.36518 -31.24498,20.2732 -1.99928,0.30333 -7.596,0.52807 -9.28616,0.37289 z m 8.28765,-10.77292 c 4.01742,-0.66839 8.22766,-2.10817 11.26362,-3.85185 9.73302,-5.59007 16.11243,-14.79183 17.81178,-25.69199 0.40964,-2.62757 0.31417,-7.78095 -0.19609,-10.58422 -0.4943,-2.71561 -1.78841,-6.72615 -3.02865,-9.386 -2.10823,-4.52136 -9.22283,-16.3861 -18.62045,-31.052588 -3.73178,-5.824033 -11.8981,-18.134928 -12.12104,-18.272714 -0.1424,-0.08801 -5.959605,8.348701 -9.431434,13.678444 -1.037447,1.592625 -2.768224,4.243673 -3.84617,5.891216 -6.161784,9.417732 -13.702383,21.792752 -16.745946,27.482082 -4.676855,8.74246 -5.985684,16.97118 -4.021376,25.28273 0.936099,3.96091 2.861482,8.1353 5.439392,11.79307 1.884609,2.67405 6.030407,6.84459 8.63343,8.68495 2.286266,1.61641 6.783711,3.8848 9.386006,4.73405 4.966041,1.62065 10.651778,2.09559 15.476928,1.29282 z M 95.194077,163.51144 c -6.152865,-1.22614 -11.178665,-6.20391 -12.442779,-12.32387 -0.857092,-4.14945 -0.335977,-6.2918 3.771218,-15.50385 4.943658,-11.08815 9.017184,-19.60502 9.727286,-20.33765 1.37568,-1.41935 3.871898,-1.89933 5.654808,-1.08733 1.02891,0.4686 2.14454,1.71224 2.59567,2.8935 0.69128,1.8101 0.54152,2.25499 -3.95959,11.76253 -4.271703,9.02299 -6.323608,13.51384 -7.352373,16.09159 -0.530898,1.33027 -0.599482,1.71451 -0.522809,2.92904 0.04854,0.76885 0.242624,1.69535 0.431303,2.05888 0.551679,1.06292 1.715698,2.22501 2.804064,2.79941 l 1.011183,0.53367 12.481392,0.0999 12.48139,0.0999 0.94805,0.46689 c 1.24067,0.61099 2.28545,1.85593 2.67124,3.18299 0.82832,2.8493 -0.97665,5.78544 -3.94832,6.42275 -1.5306,0.32826 -24.650194,0.25083 -26.351733,-0.0883 z"
       id="path1" /></g></svg>
